<?xml version="1.0" encoding="utf-8"?>
<!-- Generator: Adobe Illustrator 24.0.3, SVG Export Plug-In . SVG Version: 6.00 Build 0)  -->
<svg version="1.1" id="Capa_1" xmlns="http://www.w3.org/2000/svg" xmlns:xlink="http://www.w3.org/1999/xlink" x="0px" y="0px"
	 width="238.64px" height="70.147px" viewBox="0 0 238.64 70.147" style="enable-background:new 0 0 238.64 70.147;"
	 xml:space="preserve">
<style type="text/css">
	.st0{fill-rule:evenodd;clip-rule:evenodd;fill:#EC2D2F;}
	.st1{fill:#2764B0;}
	.st2{fill-rule:evenodd;clip-rule:evenodd;fill:#2764B0;}
	.st3{fill-rule:evenodd;clip-rule:evenodd;fill:#FFFFFF;}
	.st4{clip-path:url(#SVGID_2_);}
</style>
<g>
	<g>
		<polygon class="st0" points="79.763,3.385 68.515,3.385 68.515,44.222 92.962,44.222 92.962,35.207 79.763,35.207 		"/>
		<path class="st0" d="M125.907,17.057c-3.513-2.927-7.868-4.478-12.938-4.478c-4.749,0-9.366,1.719-12.874,4.823
			c-3.449,3.045-5.336,7.006-5.336,11.317c0,4.306,1.754,8.272,5.139,11.371c3.577,3.33,7.868,4.941,13.199,4.941
			c5.267,0,9.686-1.665,13.268-4.828c3.508-3.099,5.262-6.947,5.262-11.598C131.627,24.407,129.617,20.16,125.907,17.057z
			 M113.162,36.414c-4.483,0-8.257-3.39-8.257-7.582c0-4.252,3.71-7.636,8.257-7.636c4.552,0,8.262,3.385,8.262,7.636
			C121.424,33.024,117.714,36.414,113.162,36.414z"/>
		<path class="st0" d="M155.99,12.805c-4.616,0-7.868,1.606-10.011,4.71l0.128-4.139h-9.755v30.846h10.08V27.506
			c0-4.129,2.148-6.257,6.178-6.257c3.966,0,5.005,1.951,5.005,6.257v16.716h10.272V23.89
			C167.888,16.825,163.207,12.805,155.99,12.805z"/>
		<polygon class="st0" points="198.064,20.673 198.064,13.376 172.12,13.376 172.12,21.363 186.491,21.363 172.12,37.788 
			172.12,44.222 198.325,44.222 198.325,36.241 185.387,36.241 		"/>
		<path class="st0" d="M228.363,13.381v3.449c-2.34-2.641-5.592-3.907-9.819-3.907c-4.419,0-8.39,1.434-11.637,4.252
			c-3.641,3.104-5.592,7.065-5.592,11.489c0,4.823,2.079,8.957,6.109,12.12c3.059,2.409,6.7,3.616,10.927,3.616
			c4.158,0,7.282-0.975,10.336-3.616v3.444h9.952V13.381H228.363z M220.623,36.187c-5.262,0-9.036-3.276-9.036-7.582
			c0-4.138,3.774-7.641,8.646-7.641c4.814,0,8.518,3.335,8.518,7.755C228.752,32.97,225.048,36.187,220.623,36.187z"/>
	</g>
	<polygon class="st1" points="-0.02,19.465 19.495,0 19.495,48.001 51.055,58.303 31.821,70.147 -0.045,62.028 	"/>
	<path class="st0" d="M28.279,0.34l-0.335-0.113v0h0h0v0l-1.463,1.399v42.685l23.353,7.626l1.508-0.709l-0.242-0.083l0.002-0.001
		l0.24,0.083V7.78L28.279,0.34z M28.456,0.941l22.367,7.217v42.345l-22.451-7.548L28.456,0.941z"/>
	<g>
		<path class="st2" d="M74.033,56.324c-0.317,0.245-0.698,0.37-1.143,0.37c-0.603,0-1.09-0.196-1.467-0.585
			c-0.373-0.396-0.562-1.048-0.562-1.972c0-0.868,0.189-1.497,0.569-1.886c0.385-0.385,0.883-0.581,1.493-0.581
			c0.445,0,0.818,0.11,1.128,0.328c0.313,0.219,0.517,0.517,0.615,0.894l1.652-0.343c-0.189-0.588-0.471-1.037-0.845-1.346
			c-0.634-0.528-1.456-0.792-2.466-0.792c-1.154,0-2.089,0.34-2.798,1.011c-0.713,0.668-1.067,1.61-1.067,2.829
			c0,1.143,0.354,2.052,1.06,2.712c0.705,0.66,1.61,0.992,2.708,0.992c0.886,0,1.618-0.196,2.191-0.577
			c0.577-0.388,0.992-0.98,1.241-1.776l-1.618-0.453C74.583,55.683,74.353,56.071,74.033,56.324z"/>
		<polygon class="st2" points="79.946,54.612 84.098,54.612 84.098,53.386 79.946,53.386 79.946,51.772 84.408,51.772 
			84.408,50.535 78.279,50.535 78.279,57.829 84.566,57.829 84.566,56.599 79.946,56.599 		"/>
		<polygon class="st2" points="91.513,55.404 88.13,50.535 86.504,50.535 86.504,57.829 88.054,57.829 88.054,53.073 91.388,57.829 
			93.063,57.829 93.063,50.535 91.513,50.535 		"/>
		<polygon class="st2" points="94.741,51.772 97.193,51.772 97.193,57.829 98.859,57.829 98.859,51.772 101.307,51.772 
			101.307,50.535 94.741,50.535 		"/>
		<path class="st2" d="M108.367,55.223c-0.234-0.223-0.532-0.426-0.894-0.611c0.728-0.094,1.271-0.317,1.637-0.671
			c0.366-0.358,0.547-0.811,0.547-1.358c0-0.434-0.121-0.815-0.362-1.15c-0.241-0.336-0.562-0.566-0.962-0.698
			c-0.4-0.132-1.041-0.196-1.923-0.196h-3.511v7.29h1.667v-3.043h0.339c0.381,0,0.664,0.026,0.837,0.083
			c0.177,0.056,0.347,0.154,0.502,0.305c0.158,0.143,0.453,0.502,0.883,1.067l1.207,1.588h1.995l-1.011-1.422
			C108.918,55.841,108.601,55.441,108.367,55.223z M105.802,53.62h-1.237v-1.848h1.301c0.679,0,1.082,0.008,1.218,0.026
			c0.272,0.034,0.479,0.136,0.626,0.287c0.151,0.151,0.226,0.347,0.226,0.592c0,0.219-0.057,0.4-0.17,0.547
			c-0.113,0.147-0.268,0.249-0.468,0.309C107.1,53.59,106.602,53.62,105.802,53.62z"/>
		<path class="st2" d="M115.397,50.414c-0.675,0-1.267,0.094-1.784,0.287c-0.385,0.143-0.743,0.366-1.067,0.66
			s-0.581,0.626-0.769,0.999c-0.249,0.502-0.377,1.124-0.377,1.871c0,1.158,0.362,2.071,1.09,2.734
			c0.724,0.66,1.701,0.992,2.93,0.992c1.214,0,2.184-0.332,2.908-0.996c0.728-0.664,1.09-1.591,1.09-2.765
			c0-1.192-0.37-2.116-1.101-2.779C117.588,50.75,116.615,50.414,115.397,50.414z M117.049,56.064
			c-0.426,0.423-0.969,0.634-1.637,0.634c-0.664,0-1.211-0.215-1.644-0.637c-0.434-0.426-0.649-1.052-0.649-1.882
			c0-0.837,0.211-1.463,0.63-1.878c0.422-0.418,0.977-0.626,1.663-0.626c0.69,0,1.241,0.207,1.652,0.615
			c0.419,0.411,0.626,1.033,0.626,1.871C117.69,55.008,117.475,55.641,117.049,56.064z"/>
		<polygon class="st2" points="124.95,57.829 126.616,57.829 126.616,54.729 130.067,54.729 130.067,53.496 126.616,53.496 
			126.616,51.772 130.614,51.772 130.614,50.535 124.95,50.535 		"/>
		<polygon class="st2" points="134.163,54.612 138.311,54.612 138.311,53.386 134.163,53.386 134.163,51.772 138.624,51.772 
			138.624,50.535 132.496,50.535 132.496,57.829 138.783,57.829 138.783,56.599 134.163,56.599 		"/>
		<path class="st2" d="M146.175,55.223c-0.23-0.223-0.528-0.426-0.89-0.611c0.728-0.094,1.271-0.317,1.637-0.671
			c0.366-0.358,0.547-0.811,0.547-1.358c0-0.434-0.121-0.815-0.362-1.15c-0.241-0.336-0.562-0.566-0.962-0.698
			c-0.4-0.132-1.041-0.196-1.923-0.196h-3.511v7.29h1.667v-3.043h0.339c0.381,0,0.664,0.026,0.837,0.083
			c0.177,0.056,0.347,0.154,0.502,0.305c0.158,0.143,0.453,0.502,0.883,1.067l1.207,1.588h1.995l-1.011-1.422
			C146.729,55.841,146.412,55.441,146.175,55.223z M143.61,53.62h-1.233v-1.848h1.301c0.679,0,1.082,0.008,1.218,0.026
			c0.271,0.034,0.479,0.136,0.626,0.287c0.151,0.151,0.226,0.347,0.226,0.592c0,0.219-0.057,0.4-0.17,0.547
			c-0.113,0.147-0.268,0.249-0.468,0.309C144.911,53.59,144.413,53.62,143.61,53.62z"/>
		<path class="st2" d="M155.022,55.223c-0.23-0.223-0.528-0.426-0.89-0.611c0.724-0.094,1.271-0.317,1.637-0.671
			c0.362-0.358,0.547-0.811,0.547-1.358c0-0.434-0.121-0.815-0.362-1.15c-0.241-0.336-0.562-0.566-0.962-0.698
			c-0.4-0.132-1.041-0.196-1.923-0.196h-3.511v7.29h1.667v-3.043h0.339c0.381,0,0.664,0.026,0.837,0.083
			c0.177,0.056,0.347,0.154,0.502,0.305c0.158,0.143,0.453,0.502,0.883,1.067l1.207,1.588h1.995l-1.011-1.422
			C155.58,55.841,155.26,55.441,155.022,55.223z M152.458,53.62h-1.233v-1.848h1.301c0.675,0,1.082,0.008,1.218,0.026
			c0.272,0.034,0.479,0.136,0.626,0.287c0.151,0.151,0.226,0.347,0.226,0.592c0,0.219-0.057,0.4-0.17,0.547
			c-0.113,0.147-0.268,0.249-0.468,0.309C153.759,53.59,153.261,53.62,152.458,53.62z"/>
		<polygon class="st2" points="160.061,54.612 164.209,54.612 164.209,53.386 160.061,53.386 160.061,51.772 164.522,51.772 
			164.522,50.535 158.394,50.535 158.394,57.829 164.681,57.829 164.681,56.599 160.061,56.599 		"/>
		<polygon class="st2" points="166.008,51.772 168.459,51.772 168.459,57.829 170.126,57.829 170.126,51.772 172.574,51.772 
			172.574,50.535 166.008,50.535 		"/>
		<polygon class="st2" points="175.829,54.612 179.977,54.612 179.977,53.386 175.829,53.386 175.829,51.772 180.29,51.772 
			180.29,50.535 174.162,50.535 174.162,57.829 180.449,57.829 180.449,56.599 175.829,56.599 		"/>
		<path class="st2" d="M197.789,51.417c-0.728-0.668-1.705-1.003-2.919-1.003c-0.675,0-1.267,0.094-1.784,0.287
			c-0.385,0.143-0.743,0.366-1.071,0.66c-0.321,0.294-0.577,0.626-0.766,0.999c-0.253,0.502-0.377,1.124-0.377,1.871
			c0,1.158,0.362,2.071,1.09,2.734c0.724,0.66,1.701,0.992,2.93,0.992c1.214,0,2.18-0.332,2.908-0.996
			c0.724-0.664,1.086-1.591,1.086-2.765C198.887,53.005,198.521,52.081,197.789,51.417z M196.522,56.064
			c-0.426,0.423-0.969,0.634-1.637,0.634c-0.664,0-1.214-0.215-1.644-0.637c-0.434-0.426-0.649-1.052-0.649-1.882
			c0-0.837,0.211-1.463,0.63-1.878c0.422-0.418,0.977-0.626,1.663-0.626c0.69,0,1.241,0.207,1.652,0.615
			c0.419,0.411,0.626,1.033,0.626,1.871C197.163,55.008,196.948,55.641,196.522,56.064z"/>
		<path class="st2" d="M187.84,55.223c-0.23-0.223-0.528-0.426-0.89-0.611c0.724-0.094,1.271-0.317,1.637-0.671
			c0.362-0.358,0.547-0.811,0.547-1.358c0-0.434-0.121-0.815-0.362-1.15c-0.241-0.336-0.562-0.566-0.962-0.698
			c-0.4-0.132-1.041-0.196-1.923-0.196h-3.511v7.29h1.667v-3.043h0.339c0.381,0,0.664,0.026,0.837,0.083
			c0.177,0.056,0.343,0.154,0.502,0.305c0.158,0.143,0.453,0.502,0.883,1.067l1.207,1.588h1.991l-1.007-1.422
			C188.395,55.841,188.078,55.441,187.84,55.223z M185.276,53.62h-1.233v-1.848h1.301c0.675,0,1.082,0.008,1.218,0.026
			c0.272,0.034,0.479,0.136,0.626,0.287c0.151,0.151,0.226,0.347,0.226,0.592c0,0.219-0.057,0.4-0.17,0.547
			c-0.113,0.147-0.268,0.249-0.468,0.309C186.577,53.59,186.079,53.62,185.276,53.62z"/>
	</g>
	<polygon class="st3" points="28.456,0.941 50.824,8.159 50.824,50.504 28.373,42.956 	"/>
	<g>
		<defs>
			<polygon id="SVGID_1_" points="28.456,0.941 50.824,8.159 50.824,50.504 28.373,42.956 			"/>
		</defs>
		<clipPath id="SVGID_2_">
			<use xlink:href="#SVGID_1_"  style="overflow:visible;"/>
		</clipPath>
		<g class="st4">
			<polygon class="st0" points="27.572,36.305 27.552,45.439 33.513,47.676 33.504,38.458 			"/>
			<polygon class="st0" points="45.722,15.608 45.727,24.742 51.92,26.782 51.92,17.865 			"/>
			<path class="st0" d="M51.511,35.571L45.722,33.4v-8.702l-6.01-1.986l0.005,8.839l-6.217-2.192v-8.788l6.183,2.136l0.053-9.145
				l6.15,1.952l-0.01-9.031l-6.257-2.089l0.01,8.933l-6.148-2.223l0.015,9.369l-6.193-2.25l-0.025,9.134l6.208,2.035l0.01,9.041
				l6.208,2.03v8.976l6.025,1.591l0.01-8.484l5.858,1.927L51.511,35.571z M45.693,42.434l-5.976-2.059v-8.814l6.001,1.92
				L45.693,42.434z"/>
			<polygon class="st0" points="33.558,2.459 27.449,0.414 27.429,8.799 33.558,11.125 			"/>
		</g>
	</g>
	<rect x="201.315" y="49.762" class="st0" width="37.325" height="8.848"/>
	<g>
		<polygon class="st3" points="215.558,51.279 214.244,57.193 217.19,57.193 217.628,53.942 218.922,57.193 220.693,57.193 
			222.026,53.922 222.464,57.193 225.371,57.193 223.957,51.279 220.971,51.279 219.797,54.36 218.683,51.279 		"/>
		<polygon class="st3" points="224.668,51.279 230.975,51.279 230.975,53.229 229.334,53.229 229.334,57.193 226.311,57.193 
			226.311,53.229 224.668,53.229 		"/>
		<path class="st3" d="M230.933,56.71c0.732,0.226,1.75,0.404,1.75,0.404c0.614,0.101,0.756,0.126,1.741,0.109
			c0.985-0.017,1.883-0.411,1.883-0.411c0.958-0.394,1.17-1.058,1.17-1.058c0.404-0.765-0.084-1.428-0.084-1.428
			c-0.344-0.512-1.261-0.748-1.261-0.748c-0.244-0.135-1.615-0.277-1.615-0.277c-0.438-0.033-0.311-0.286-0.311-0.286
			c0.017-0.303,0.867-0.243,0.924-0.243c0.429,0,1.38,0.445,1.38,0.445l0.833-1.553c-0.79-0.428-2.196-0.495-2.196-0.495
			c-1.194-0.125-2.321,0.31-2.321,0.31c-1.69,0.546-1.606,1.839-1.606,1.839c-0.02,0.38,0.2,0.872,0.647,1.143
			c0.68,0.411,1.7,0.512,1.741,0.512c0.513,0,0.765,0.118,0.765,0.118c0.387,0.118,0.101,0.411,0.101,0.411
			c-0.21,0.118-0.597,0.135-0.597,0.135c-0.992,0.067-2.077-0.63-2.077-0.63L230.933,56.71z"/>
	</g>
</g>
</svg>
